PathFileType	4	(X/Y/Z)	C:/Users/beibeiliu/ov580/test_trc\sequence.23_training_dense_left.trc
DataRate	CameraRate	NumFrames	NumMarkers	Units	OrigDataRate	OrigDataStartFrame	OrigNumFrames
120	120	16	19	mm	120	1	289
Frame#	Time	ThumbCMC			ThumbMCP			ThumbIP			ThumbTip			IndexMCP			IndexPIP			IndexTip			MiddleMCP			MiddlePIP			MiddleTip			RingMCP			RingPIP			RingTip			PinkyMCP			PinkyPIP			PinkyTip			BackHand1			BackHand2			BackHand3	
		X0	Y0	Z0	X1	Y1	Z1	X2	Y2	Z2	X3	Y3	Z3	X4	Y4	Z4	X5	Y5	Z5	X6	Y6	Z6	X7	Y7	Z7	X8	Y8	Z8	X9	Y9	Z9	X10	Y10	Z10	X11	Y11	Z11	X12	Y12	Z12	X13	Y13	Z13	X14	Y14	Z14	X15	Y15	Z15	X16	Y16	Z16	X17	Y17	Z17	X18	Y18	Z18	
0	0	-156.599	2.11205	45.44	-142.996	-1.80658	24.7774	-130.325	0.757095	4.37464	-120.276	1.83632	-14.3865	-168.193	0.0869965	-23.8146	-163.306	-4.93295	-44.0447	-159.443	-7.30168	-71.0642	-188.598	-1.86574	-30.2482	-190.177	-4.92121	-52.3366	-193.629	-6.44085	-76.7677	-206.321	-4.46422	-24.1435	-209.191	-5.64261	-40.5829	-213.241	-5.69161	-60.8453	-227.683	-8.06448	-6.6781	-231.64	-8.37222	-20.0215	-236.059	-2.29625	-39.1943	-205.806	9.27092	17.8303	-205.643	15.5205	47.9668	-180.953	16.6893	29.9636	
1	0.00833333	-158.167	2.46002	43.3071	-142.312	0.306116	23.8289	-135.349	0.222151	3.5878	-121.028	1.47391	-14.2388	-168.728	0.499794	-25.401	-165.097	-4.49573	-48.1839	-161.714	-8.07891	-71.7458	-188.229	-1.05939	-32.6715	-189.511	-3.64638	-49.7572	-194.35	-5.3067	-76.6561	-210.956	-2.79183	-21.6336	-208.685	-4.65929	-41.0907	-213.797	-3.39175	-65.883	-224.598	-7.09246	-3.06888	-234.241	-5.5644	-24.0727	-239.06	0.143332	-36.168	-207.874	9.64044	21.8203	-204.517	17.8018	45.1655	-179.881	16.8049	28.3134	
2	0.0166667	-157.689	2.60517	45.2842	-143.462	-0.198851	26.454	-131.29	1.4284	0.843519	-123.201	0.499723	-10.6418	-163.095	0.0359974	-28.516	-164.987	-4.77644	-45.7174	-157.747	-7.45904	-67.2032	-190.214	0.610824	-29.2212	-189.658	-3.3838	-50.7509	-191.084	-4.32585	-74.848	-205.43	-0.921286	-19.7022	-209.512	-3.40004	-45.3976	-214.574	-3.23079	-64.9008	-226.104	-4.37875	-3.81656	-233.544	-4.87666	-21.5864	-237.7	-0.379733	-37.0555	-207.911	11.7811	21.319	-203.036	17.6978	45.17	-180.687	17.8368	31.2565	
3	0.025	-154.033	4.83524	40.9088	-143.412	0.819702	23.4694	-132.317	1.51198	2.80231	-121.535	0.912421	-9.06199	-165.318	0.52898	-27.8024	-160.293	-3.9715	-48.8096	-162.968	-7.91167	-66.162	-187.14	1.54447	-27.7523	-189.55	-2.79764	-52.6568	-193.45	-4.23614	-75.2293	-204.678	0.226683	-22.1569	-209.738	-2.25611	-43.6737	-211.241	-2.21451	-59.988	-220.712	-3.9362	-3.20103	-228.65	-2.09433	-21.8292	-237.389	3.45036	-35.5568	-205.223	11.5702	18.6818	-205.925	18.8159	44.2833	-178.31	18.9769	28.3797	
4	0.0333333	-157.656	4.17203	44.8744	-141.781	2.23108	22.0482	-129.361	2.37301	4.50117	-118.598	2.39703	-10.1871	-162.271	2.54219	-24.3635	-161.759	-2.79997	-43.415	-158.101	-6.12145	-65.1779	-184.917	2.69526	-33.2655	-186.67	-2.6858	-54.552	-190.654	-2.82494	-73.3724	-208.899	0.120215	-20.4918	-208.315	-0.499819	-44.7269	-213.537	-1.29516	-63.8367	-226.275	-2.70089	-3.89064	-226.905	-1.61263	-20.6478	-237.322	4.8097	-35.5904	-205.596	14.4197	19.5269	-199.787	20.8799	42.9969	-178.544	19.0449	28.7641	
5	0.0416667	-157.204	6.28307	41.1369	-142.682	3.7827	23.2294	-132.023	4.5757	1.00019	-118.25	4.26493	-10.9677	-161.46	3.68784	-22.9118	-164.465	-3.0445	-47.2815	-158.77	-5.94497	-65.1278	-188.754	2.31217	-31.5817	-187.162	-1.13209	-51.4341	-193.609	-2.91356	-74.0161	-209.351	1.15848	-20.2424	-211.326	-0.164425	-43.7842	-214.594	-0.6191	-60.2844	-223.793	-0.665272	-3.6457	-226.602	-0.976119	-18.4244	-237.512	3.42459	-35.0729	-202.094	15.6823	23.126	-202.074	21.2944	45.3948	-175.211	20.6044	30.2373	
6	0.05	-155.118	8.36664	41.7883	-140.381	5.56484	22.9336	-132.819	3.39856	5.57075	-121.043	5.05488	-9.90175	-165.907	3.77902	-27.6283	-161.438	-1.44672	-43.183	-161.616	-5.5109	-65.5668	-189.879	3.1101	-31.855	-187.009	-0.330022	-49.0739	-191.763	-1.43092	-75.9476	-204.795	2.39109	-18.3679	-210.074	0.0149407	-40.8871	-211.871	1.41532	-64.1617	-226.388	-0.477468	-3.12066	-231.349	0.541888	-22.5377	-238.184	5.42512	-36.0842	-201.329	14.6362	23.7798	-203.956	22.5116	47.2363	-178.971	23.3416	31.592	
7	0.0583333	-155.506	9.32348	46.6394	-141.357	5.54909	26.1726	-129.327	7.75804	2.99448	-117.657	7.34832	-8.5247	-165.021	6.2999	-26.3323	-161.076	-0.501145	-48.0808	-162.807	-3.93465	-66.1441	-188.07	4.19768	-31.6464	-188.114	0.0546982	-49.9287	-188.374	-1.76437	-78.8262	-205.009	4.00751	-19.73	-212.762	0.845308	-41.2221	-214.146	0.611229	-60.6283	-226.888	2.11056	-5.51097	-229.299	1.43594	-19.5108	-238.71	7.1084	-39.0426	-206.99	16.1285	23.8719	-204.105	23.465	45.3188	-176.285	25.3687	30.526	
8	0.0666667	-156.654	9.45349	44.1202	-143.004	6.61346	23.7257	-134.074	7.0251	4.67339	-120.067	8.96956	-12.1373	-165.221	8.06792	-23.4926	-162.644	1.61858	-48.6609	-157.652	-4.0772	-70.4857	-187.648	6.70799	-28.1439	-191.064	1.17238	-53.2042	-190.885	-0.949913	-75.9401	-207.704	5.5343	-21.0301	-212.53	2.74991	-40.6353	-211.688	2.30774	-63.5076	-226.478	2.78486	-1.05906	-229.344	2.95517	-18.4348	-239.011	8.65618	-36.5865	-204.747	17.0556	22.3278	-205.042	24.4499	48.6128	-178.419	24.0409	32.1461	
9	0.075	-159.402	9.60965	46.4154	-139.899	7.60529	25.4539	-130.072	8.24114	7.83252	-123.106	6.72219	-8.34645	-164.453	7.94879	-24.0386	-165.516	2.98049	-43.3	-161.838	-1.89087	-67.0854	-186.598	7.66011	-30.0247	-187.033	3.23511	-50.6515	-190.207	0.0730042	-73.962	-204.898	7.27352	-22.0991	-213.328	4.52811	-38.4213	-213.189	3.02303	-60.9752	-222.451	4.19676	-1.38892	-231.745	4.58003	-20.4861	-237.114	9.0921	-36.4268	-207.883	19.2237	23.4125	-205.064	26.4056	44.9016	-177.711	25.5558	33.3566	
10	0.0833333	-158.414	11.6902	44.6169	-143.174	8.11958	26.2326	-132.676	8.1264	5.81455	-120.662	8.65799	-9.43654	-167.901	7.84977	-24.9647	-163.727	2.73416	-43.9843	-163.333	-2.17609	-68.8484	-189.007	8.20056	-31.4218	-188.928	3.54977	-49.2993	-194.977	1.2817	-73.3356	-212.041	7.30985	-19.3518	-213.637	5.5797	-38.8076	-213.544	5.44958	-62.2089	-223.884	5.45654	-1.74578	-232.012	6.62378	-20.0491	-238.034	9.99914	-36.0353	-208.61	20.553	23.8958	-205.23	26.3963	44.2452	-180.674	27.2352	32.2039	
11	0.0916667	-162.398	10.2548	47.0662	-141.482	8.39715	27.9665	-131.86	8.70836	7.43308	-125.006	7.54748	-8.40437	-167.133	8.34144	-25.3392	-164.488	2.61394	-46.2108	-164.172	-1.1429	-64.8859	-189.972	9.06977	-28.3692	-192.48	4.52363	-51.1784	-194.783	2.27452	-76.9221	-211.236	8.13354	-17.47	-211.124	5.93725	-38.522	-216.065	6.06158	-58.3177	-225.055	7.48238	-6.7778	-230.562	6.35327	-18.6229	-241.892	11.5882	-36.5343	-209.228	22.6905	21.7904	-208.302	28.6469	46.158	-178.552	25.7046	30.7276	
12	0.1	-163.321	12.9282	42.7113	-147.726	7.82656	25.5098	-132.25	8.8198	6.80131	-122.173	9.47056	-7.93057	-166.956	9.19153	-26.5553	-163.204	3.84501	-45.3042	-163.334	-0.121292	-63.933	-188.887	9.49484	-30.438	-192.633	4.7438	-52.6956	-196.271	3.41611	-73.189	-213.437	9.46552	-18.9748	-210.899	7.4074	-41.8692	-215.751	6.98529	-60.2808	-228.284	6.75365	-1.61864	-232.775	6.65343	-17.4924	-240.828	13.203	-37.7706	-205.618	21.0373	20.4415	-206.119	28.8492	48.2891	-181.344	26.675	32.9482	
13	0.108333	-161.241	12.4208	45.9281	-143.26	10.1933	24.5032	-132.559	10.95	4.37625	-122.145	9.8744	-10.1343	-171.307	10.8096	-23.7924	-166.535	5.93603	-43.3408	-163.963	0.329096	-68.513	-191.06	10.9671	-32.5256	-191.148	5.99956	-52.8111	-194.046	4.13904	-73.5058	-211.031	10.1571	-21.7056	-212.881	7.43729	-38.5663	-214.861	7.24804	-59.3636	-226.278	8.85558	-6.88995	-235.192	7.85106	-23.0242	-239.305	13.1171	-38.5115	-206.888	21.3396	20.2171	-206.349	30.7311	45.1276	-181.515	30.208	34.0433	
14	0.116667	-159.751	13.9136	44.9235	-144.331	9.64094	27.3963	-132.34	9.81607	6.52149	-124.277	9.42301	-9.26833	-171.228	10.4336	-27.1649	-168.133	5.07985	-45.4896	-164.347	-0.569088	-68.1216	-189.777	11.0558	-29.505	-190.293	6.19111	-51.6578	-196.079	3.65208	-79.0664	-210.551	9.97066	-21.1676	-213.392	7.73038	-41.3597	-213.945	6.56046	-59.5023	-230.612	8.17451	-6.06355	-234.434	7.84121	-18.5757	-242.64	14.3214	-39.3405	-210.932	22.7693	22.7789	-205.73	27.7863	44.6596	-182.983	28.965	31.0962	
15	0.125	-159.892	13.1414	44.1856	-144.977	9.91817	23.888	-132.145	11.8027	1.96751	-122.204	9.07036	-7.67703	-168.395	11.1634	-25.8066	-163.598	5.37528	-46.0284	-165.204	0.369561	-71.2379	-192.458	11.6825	-29.0311	-189.174	6.53696	-54.9068	-193.584	4.7623	-75.8783	-211.492	10.1014	-19.8502	-211.547	7.00682	-40.4269	-215.761	6.22697	-60.9725	-230.546	7.38216	-5.10956	-232.64	7.27036	-21.1016	-239.264	13.1987	-39.4876	-208.18	21.0751	19.6998	-206.192	27.9818	45.2066	-180.828	30.2343	28.2925	
